# xmcd
#
# Track frame offsets:
# 150
# 16622
# 28465
# 42101
# 56471
# 73915
# 90896
# 104734
# 119889
# 133155
# 150784
# 165916
# 179092
# 192523
#
# Disc length: 2788 seconds
#
#
# Revision: 0
# Processed by: cddbd v1.5.2PL0 Copyright (c) Steve Scherf et al.
# Submitted via: FreeRIP 2.951 
#
DISCID=be0ae20e
DTITLE=RIONEGRO&SOLIMÕES - DO JEITO DA GENTE
DYEAR=2006
DGENRE=FORRÓ
TTITLE0=Vida_de_cão
TTITLE1=Agito_do_meu_povo
TTITLE2=La_Bella_Luna
TTITLE3=Eu_sem_voce
TTITLE4=A_sua_maneira
TTITLE5=Cidade
TTITLE6=Fim_de_semana
TTITLE7=No_mesmo_lugar
TTITLE8=Nem_com_reza
TTITLE9=Dois
TTITLE10=Tá_doendo_demais_essa_saudade
TTITLE11=Minha_serenata
TTITLE12=Ponto_de_chegada
TTITLE13=Saudade_morena
EXTD=RIPADO POR FREE RIP MP3-V.2,95 BY sonarsom/2006
EXTT0=
EXTT1=
EXTT2=
EXTT3=
EXTT4=
EXTT5=
EXTT6=
EXTT7=
EXTT8=
EXTT9=
EXTT10=
EXTT11=
EXTT12=
EXTT13=
PLAYORDER=
